/* XPM */
static char * imagemapicon_xpm[] = {
"22 22 144 2",
"  	c #CECFCE",
". 	c #839DB5",
"+ 	c #7998B4",
"@ 	c #879EB4",
"# 	c #7D98B2",
"$ 	c #658CB1",
"% 	c #5E9CD5",
"& 	c #A8B3DB",
"* 	c #D1D4E5",
"= 	c #B9CCE1",
"- 	c #5195D4",
"; 	c #4A7CAB",
"> 	c #567DC3",
", 	c #7C76CB",
"' 	c #7C75CA",
") 	c #4A67BC",
"! 	c #478CCD",
"~ 	c #4779A8",
"{ 	c #4064BB",
"] 	c #A4ABDC",
"^ 	c #928DDC",
"/ 	c #4A67C3",
"( 	c #4185C5",
"_ 	c #4575A1",
": 	c #3B77AE",
"< 	c #566487",
"[ 	c #64758B",
"} 	c #437CB1",
"| 	c #3D7DB8",
"1 	c #91999F",
"2 	c #A8B2BA",
"3 	c #C5C2BE",
"4 	c #EBE7E1",
"5 	c #EBE6E0",
"6 	c #E3DED8",
"7 	c #E8E3DD",
"8 	c #E7E3DC",
"9 	c #E3DFD9",
"0 	c #EAE6DF",
"a 	c #E9E4DE",
"b 	c #ABA7A3",
"c 	c #ACA8A4",
"d 	c #B1ADA8",
"e 	c #C0BCB7",
"f 	c #BDB9B4",
"g 	c #817E7A",
"h 	c #CFCBC5",
"i 	c #989591",
"j 	c #B6B3AD",
"k 	c #928F8B",
"l 	c #E1DCD6",
"m 	c #E0DCD5",
"n 	c #E7E2DB",
"o 	c #A5A29D",
"p 	c #CDC9C3",
"q 	c #918E8A",
"r 	c #8D8A86",
"s 	c #898682",
"t 	c #85827E",
"u 	c #B4B0AA",
"v 	c #999591",
"w 	c #97938F",
"x 	c #A9A6A0",
"y 	c #E6E1DA",
"z 	c #94918C",
"A 	c #E8E3DC",
"B 	c #E6E0D9",
"C 	c #B2AEA8",
"D 	c #B3AFA9",
"E 	c #D4CFC8",
"F 	c #DBD6CF",
"G 	c #C5C1BA",
"H 	c #D8D3CC",
"I 	c #7C7975",
"J 	c #B5B1AB",
"K 	c #C0BBB5",
"L 	c #D5D0C9",
"M 	c #D1CCC5",
"N 	c #E0DAD3",
"O 	c #D6D0C9",
"P 	c #96928D",
"Q 	c #E2DCD4",
"R 	c #DED7CE",
"S 	c #F0EDE8",
"T 	c #F2EFEA",
"U 	c #EDE9E3",
"V 	c #DAE4D8",
"W 	c #9AD4B3",
"X 	c #BFDDC9",
"Y 	c #C1DECA",
"Z 	c #C9E0CE",
"` 	c #91D4AD",
" .	c #9ED8B6",
"..	c #B5DCC2",
"+.	c #B3DBC1",
"@.	c #C7E0CD",
"#.	c #BBDDC6",
"$.	c #A8D9BC",
"%.	c #92D6AE",
"&.	c #A1D6B7",
"*.	c #ECE9E2",
"=.	c #B8D7C1",
"-.	c #91D4AC",
";.	c #A3DBB7",
">.	c #77CE9A",
",.	c #62C788",
"'.	c #72C894",
").	c #C8C4BF",
"!.	c #ABA8A4",
"~.	c #B1D9BE",
"{.	c #9DD8B1",
"].	c #7FD09E",
"^.	c #64C685",
"/.	c #61C584",
"(.	c #8ACAA3",
"_.	c #C9D7C9",
":.	c #88C094",
"<.	c #84CF9B",
"[.	c #6EC482",
"}.	c #84C480",
"|.	c #83C086",
"1.	c #E7E3DD",
"2.	c #CFCBC6",
"3.	c #96CAA7",
"4.	c #67C388",
"5.	c #6DC281",
"6.	c #93CC84",
"7.	c #88C17D",
"8.	c #A7C7AE",
"9.	c #D8DCD3",
"0.	c #86B98B",
"a.	c #9BC390",
"b.	c #C9D1C6",
"c.	c #CAD2C7",
"d.	c #D5D9D0",
"e.	c #A9C4A7",
"f.	c #91BF7D",
"g.	c #BDCDBC",
"h.	c #E5E3DC",
"i.	c #B6CAB8",
"j.	c #C7D4C6",
"k.	c #D1D8CD",
"l.	c #E4DFD7",
"m.	c #F1EEEA",
"  . + @ # + + + + + + + + + + + + + + + + + ",
"$ % & * = - - - - - - - - - - - - - - - - - ",
"; > , ' ) ! ! ! ! ! ! ! ! ! ! ! ! ! ! ! ! ! ",
"~ { ] ^ / ( ( ( ( ( ( ( ( ( ( ( ( ( ( ( ( ( ",
"_ : < [ } | | | | | | | | | | | | | | | | | ",
"1 2 2 2 2 2 2 2 2 2 2 2 2 2 2 2 2 2 2 2 2 2 ",
"3 4 5 5 5 6 7 5 5 5 5 5 5 5 8 9 5 5 5 5 5 5 ",
"3 0 a b c d e f a a a a g h i j k l a a m f ",
"3 a n o p q r s n n n n t u v w x y n n n z ",
"3 A B C D E F G B B B H I J K L M N B B O P ",
"3 Q R R R R R R R R R R R R R R R R R R R R ",
"3 S T T T T T T T T T T T T T T T T T T T T ",
"3 U U U U U U U U U U U U U U U U U U U U U ",
"3 U U U U V W U U U U U U U U U U X Y U U U ",
"3 U U U Z `  ...+.U U U U U U @.#.$.%.&.*.U ",
"3 U U =.-.;.>.,.'.U U ).!.U U ~.{.].^./.(.U ",
"3 U U _.:.<.[.}.|.U U 1.2.U U 3.4.5.6.7.8.U ",
"3 U U U 9.0.a.b.c.U U U U U U d.b.e.f.g.U U ",
"3 U U U U h.i.U U U U U U U U U U j.k.U U U ",
"3 U U U U U U U U U U U U U U U U U U U U U ",
"3 n l.l.l.l.l.l.l.l.l.l.l.l.l.l.l.l.l.l.l.l.",
"3 S m.m.m.m.m.m.m.m.m.m.m.m.m.m.m.m.m.m.m.m."};
